<svg width="1372" height="382" viewBox="0 0 1372 382" fill="none" xmlns="http://www.w3.org/2000/svg">
<g id="Frame 19">
<g id="Group 11">
<rect id="Rectangle 1" x="1" y="1" width="1370" height="380" rx="19" fill="#67E78B" fill-opacity="0.1" stroke="#67E78B" stroke-width="2"/>
<g id="Group 1">
<path id="Vector" d="M405.509 343.084C409.873 347.507 406.74 355 400.526 355H324.369C322.496 355 320.701 354.249 319.385 352.916L238.453 270.877C235.764 268.151 235.764 263.771 238.453 261.045L276.531 222.445C279.273 219.667 283.757 219.667 286.498 222.445L405.509 343.084Z" fill="url(#paint0_linear_142_3)"/>
<path id="Vector_2" d="M166.585 198.027C163.896 195.301 163.896 190.92 166.585 188.195L319.385 33.3052C320.701 31.9718 322.496 31.2212 324.369 31.2212H400.526C406.74 31.2212 409.873 38.7139 405.509 43.1372L214.63 236.626C211.889 239.405 207.405 239.405 204.664 236.626L166.585 198.027Z" fill="#50E6FF"/>
<path id="Vector_3" d="M400.526 176.922C406.74 176.922 409.873 184.414 405.509 188.838L286.498 309.476C283.757 312.255 279.273 312.255 276.531 309.476L238.453 270.877C235.764 268.151 235.764 263.771 238.453 261.045L319.385 179.006C320.701 177.672 322.496 176.922 324.369 176.922H400.526Z" fill="#50E6FF"/>
<path id="Vector_4" d="M276.592 222.379L238.515 260.978C235.8 263.731 235.8 268.193 238.515 270.945L276.594 309.543C279.309 312.295 283.711 312.295 286.426 309.543L324.503 270.943C327.218 268.191 327.218 263.729 324.503 260.977L286.424 222.379C283.709 219.627 279.307 219.627 276.592 222.379Z" fill="#35C1F1"/>
</g>
<path id="FLUTTER" d="M34.32 67.1465V38.3465H60.76V43.1865H39.16V50.3065H56.56V55.1865H39.16V67.1465H34.32ZM63.1863 67.1465V38.3065H67.9863V62.3065H91.9863V67.1465H63.1863ZM99.6381 67.1465C98.6515 67.1465 97.7448 66.9065 96.9181 66.4265C96.0915 65.9465 95.4381 65.2932 94.9581 64.4665C94.4781 63.6398 94.2381 62.7332 94.2381 61.7465V38.3465H99.0381V61.5865C99.0381 61.7998 99.1048 61.9732 99.2381 62.1065C99.3981 62.2398 99.5715 62.3065 99.7581 62.3065H117.438C117.651 62.3065 117.825 62.2398 117.958 62.1065C118.118 61.9732 118.198 61.7998 118.198 61.5865V38.3465H123.038V61.7465C123.038 62.7332 122.785 63.6398 122.278 64.4665C121.798 65.2932 121.145 65.9465 120.318 66.4265C119.518 66.9065 118.625 67.1465 117.638 67.1465H99.6381ZM138.003 67.1465V43.1865H126.003V38.3465H154.803V43.1865H142.843V67.1465H138.003ZM168.355 67.1465V43.1865H156.355V38.3465H185.155V43.1865H173.195V67.1465H168.355ZM188.226 67.1465V38.3465H214.666V43.1865H193.066V50.3065H210.466V55.1865H193.066V62.3065H214.666V67.1465H188.226ZM242.051 67.1465L233.211 56.5865H239.491L247.451 66.0265V67.1465H242.051ZM218.771 67.1465V38.3865H242.171C243.158 38.3865 244.051 38.6398 244.851 39.1465C245.678 39.6265 246.331 40.2798 246.811 41.1065C247.318 41.9065 247.571 42.7998 247.571 43.7865V51.7065C247.571 52.6665 247.318 53.5598 246.811 54.3865C246.331 55.2132 245.678 55.8665 244.851 56.3465C244.051 56.8265 243.158 57.0665 242.171 57.0665L223.571 57.1065V67.1465H218.771ZM224.291 52.2265H241.971C242.185 52.2265 242.358 52.1598 242.491 52.0265C242.651 51.8932 242.731 51.7198 242.731 51.5065V43.9065C242.731 43.7198 242.651 43.5598 242.491 43.4265C242.358 43.2665 242.185 43.1865 241.971 43.1865H224.291C224.105 43.1865 223.931 43.2665 223.771 43.4265C223.638 43.5598 223.571 43.7198 223.571 43.9065V51.5065C223.571 51.7198 223.638 51.8932 223.771 52.0265C223.931 52.1598 224.105 52.2265 224.291 52.2265Z" fill="white"/>
<g id="Frame 7">
<g id="Group">
<path id="Vector_5" d="M1122.39 291C1122.17 291.002 1121.94 291.056 1121.73 291.172C1121.06 291.542 1120.82 292.398 1121.19 293.064L1122.69 295.782C1119.06 298.026 1116.66 301.858 1116.66 306.232C1116.66 306.25 1116.66 306.278 1116.66 306.305C1116.66 306.315 1116.66 306.32 1116.66 306.331C1116.66 306.345 1116.66 306.366 1116.66 306.369V307.045C1115.96 306.243 1114.94 305.737 1113.8 305.737C1111.7 305.737 1110 307.439 1110 309.534V321.231C1110 323.327 1111.7 325.029 1113.8 325.029C1114.94 325.029 1115.96 324.523 1116.66 323.721V325.36C1116.66 327.569 1118.47 329.376 1120.68 329.376H1121.7V334.58C1121.7 336.675 1123.4 338.377 1125.49 338.377C1127.59 338.377 1129.29 336.675 1129.29 334.58V329.376H1131.05V334.58C1131.05 336.675 1132.76 338.377 1134.85 338.377C1136.95 338.377 1138.65 336.675 1138.65 334.58V329.376H1139.67C1141.88 329.376 1143.68 327.569 1143.68 325.36V323.721C1144.38 324.523 1145.4 325.029 1146.55 325.029C1148.64 325.029 1150.35 323.327 1150.35 321.231V309.534C1150.35 307.439 1148.64 305.737 1146.55 305.737C1145.4 305.737 1144.38 306.243 1143.68 307.045V306.382V306.369C1143.68 306.349 1143.68 306.328 1143.68 306.331C1143.68 306.29 1143.68 306.257 1143.68 306.232C1143.68 301.859 1141.28 298.03 1137.65 295.786L1139.16 293.064C1139.53 292.398 1139.29 291.542 1138.62 291.172C1138.41 291.056 1138.18 291.002 1137.96 291C1137.46 290.995 1136.98 291.255 1136.73 291.714L1135.15 294.565C1133.61 293.996 1131.93 293.683 1130.17 293.683C1128.42 293.683 1126.74 293.992 1125.2 294.561L1123.62 291.714C1123.36 291.255 1122.88 290.995 1122.39 291Z" fill="white"/>
<path id="Vector_6" d="M1113.8 306.726C1112.23 306.726 1110.99 307.971 1110.99 309.534V321.231C1110.99 322.795 1112.23 324.039 1113.8 324.039C1115.36 324.039 1116.61 322.795 1116.61 321.231V309.534C1116.61 307.971 1115.36 306.726 1113.8 306.726ZM1146.55 306.726C1144.98 306.726 1143.74 307.971 1143.74 309.534V321.231C1143.74 322.795 1144.98 324.039 1146.55 324.039C1148.11 324.039 1149.36 322.795 1149.36 321.231V309.534C1149.36 307.971 1148.11 306.726 1146.55 306.726Z" fill="#A4C639"/>
<path id="Vector_7" d="M1125.49 320.075C1123.93 320.075 1122.69 321.319 1122.69 322.883V334.58C1122.69 336.143 1123.93 337.388 1125.49 337.388C1127.06 337.388 1128.3 336.143 1128.3 334.58V322.883C1128.3 321.319 1127.06 320.075 1125.49 320.075ZM1134.85 320.075C1133.29 320.075 1132.04 321.319 1132.04 322.883V334.58C1132.04 336.143 1133.29 337.388 1134.85 337.388C1136.42 337.388 1137.66 336.143 1137.66 334.58V322.883C1137.66 321.319 1136.42 320.075 1134.85 320.075Z" fill="#A4C639"/>
<path id="Vector_8" d="M1122.4 291.989C1122.33 291.99 1122.27 292.007 1122.21 292.041C1122.01 292.152 1121.94 292.382 1122.05 292.583L1124.03 296.156C1120.23 298.136 1117.66 301.9 1117.65 306.219H1142.7C1142.69 301.9 1140.12 298.136 1136.31 296.156L1138.29 292.583C1138.4 292.382 1138.34 292.152 1138.14 292.041C1138.08 292.007 1138.01 291.99 1137.95 291.989C1137.81 291.988 1137.67 292.059 1137.6 292.196L1135.59 295.808C1133.95 295.081 1132.11 294.673 1130.17 294.673C1128.23 294.673 1126.39 295.081 1124.75 295.808L1122.75 292.196C1122.67 292.059 1122.54 291.988 1122.4 291.989ZM1117.65 307.208V325.36C1117.65 327.037 1119 328.387 1120.68 328.387H1139.67C1141.35 328.387 1142.7 327.037 1142.7 325.36V307.208H1117.65Z" fill="#A4C639"/>
<path id="Vector_9" d="M1124.39 299.545C1123.82 299.545 1123.35 300.018 1123.35 300.59C1123.35 301.162 1123.82 301.635 1124.39 301.635C1124.96 301.635 1125.44 301.162 1125.44 300.59C1125.44 300.018 1124.96 299.545 1124.39 299.545ZM1135.95 299.545C1135.38 299.545 1134.91 300.018 1134.91 300.59C1134.91 301.162 1135.38 301.635 1135.95 301.635C1136.52 301.635 1137 301.162 1137 300.59C1137 300.018 1136.52 299.545 1135.95 299.545Z" fill="white"/>
</g>
<g id="Group 2">
<path id="Vector_10" d="M1186.93 294.333L1209.15 291V310.777H1186.93V294.333Z" fill="#90C300"/>
<path id="Vector_11" d="M1166.93 297.222L1183.97 294.703V310.999H1166.93V297.222Z" fill="#F8672C"/>
<path id="Vector_12" d="M1186.93 329.887L1209.15 333.22V313.962H1186.93V329.887Z" fill="#FFC400"/>
<path id="Vector_13" d="M1166.93 326.998L1183.97 329.516V313.962H1166.93V326.998Z" fill="#00B4F2"/>
</g>
<path id="Vector_14" d="M1232.07 332.511C1231.34 332.151 1230.67 331.185 1230.67 330.49C1230.67 330.198 1230.64 330.178 1230.2 330.112C1229.94 330.073 1229.57 329.959 1229.37 329.858C1228.62 329.477 1228 328.449 1228 327.591C1228 327.222 1228 327.221 1227.46 327.108C1226.78 326.968 1226.29 326.561 1225.97 325.88L1225.74 325.387V309.104C1225.74 295.756 1225.77 292.754 1225.87 292.451C1226.08 291.888 1226.46 291.442 1226.96 291.21L1227.41 291H1248.06C1270.53 291 1269.07 290.965 1269.68 291.522C1269.98 291.796 1270.38 292.638 1270.38 292.993C1270.38 293.251 1270.41 293.263 1270.86 293.263C1272.09 293.263 1273.07 294.1 1273.34 295.379L1273.45 295.896L1273.93 295.942C1274.75 296.02 1275.55 296.698 1275.86 297.568C1275.97 297.87 1275.99 300.883 1276 314.276C1276 332.379 1276.05 331.102 1275.36 331.907C1275.17 332.123 1274.82 332.393 1274.58 332.508L1274.13 332.717L1253.31 332.717L1232.48 332.717L1232.07 332.511L1232.07 332.511ZM1274.52 331.672C1274.69 331.53 1274.92 331.244 1275.02 331.036C1275.21 330.666 1275.22 330.343 1275.22 314.319C1275.22 300.818 1275.19 297.924 1275.08 297.662C1274.93 297.291 1274.3 296.708 1274.05 296.706C1273.96 296.705 1273.79 296.678 1273.67 296.645L1273.45 296.587L1273.42 312.371L1273.39 328.156L1273.1 328.735C1272.73 329.441 1272.16 329.903 1271.47 330.052C1271.12 330.127 1265.1 330.159 1251.15 330.159H1231.34L1231.41 330.479C1231.51 330.969 1231.85 331.521 1232.19 331.735C1232.48 331.924 1232.82 331.927 1253.35 331.928L1274.21 331.93L1274.52 331.672ZM1271.61 329.235C1271.98 329.08 1272.37 328.601 1272.54 328.103C1272.7 327.641 1272.7 295.848 1272.55 295.292C1272.49 295.083 1272.27 294.731 1272.07 294.511C1271.72 294.134 1271.66 294.108 1271.04 294.069L1270.39 294.028V309.735C1270.39 327.079 1270.44 325.807 1269.77 326.503C1269.59 326.683 1269.32 326.904 1269.16 326.994C1268.88 327.146 1267.3 327.16 1248.78 327.184L1228.69 327.21L1228.75 327.627C1228.85 328.297 1229.2 328.901 1229.64 329.149L1230.03 329.369L1250.65 329.37C1268.07 329.372 1271.33 329.351 1271.61 329.235L1271.61 329.235ZM1250.02 321.151C1251.81 320.839 1253.4 320.199 1254.92 319.183C1260.22 315.638 1262.07 308.508 1259.14 302.918C1257.31 299.425 1254.18 297.065 1250.28 296.244C1249.11 295.997 1246.51 295.998 1245.35 296.247C1242.88 296.775 1240.73 297.914 1239.01 299.601C1237.2 301.387 1236.14 303.238 1235.5 305.753C1235.07 307.422 1235.07 309.838 1235.49 311.618C1236.61 316.322 1240.43 320.056 1245.15 321.045C1246.25 321.274 1246.27 321.276 1247.76 321.291C1248.63 321.299 1249.47 321.247 1250.02 321.151L1250.02 321.151ZM1246.39 319.1C1245.8 318.914 1245.08 318.525 1244.43 318.043C1243.88 317.639 1242.85 316.466 1242.47 315.808L1242.29 315.51L1243.2 315.218C1244.35 314.851 1245.37 314.641 1246.41 314.555L1247.22 314.487V316.862V319.238L1247 319.232C1246.88 319.228 1246.6 319.169 1246.39 319.1ZM1248.41 316.935C1248.41 314.896 1248.43 314.6 1248.56 314.547C1248.79 314.461 1250.55 314.69 1251.44 314.921C1252.39 315.166 1253.33 315.503 1253.33 315.595C1253.33 315.634 1253.12 315.971 1252.85 316.345C1251.75 317.897 1250.22 318.973 1248.8 319.2L1248.41 319.263V316.935ZM1242.25 318.198C1241.62 317.814 1240.63 317.083 1240.44 316.843C1240.33 316.715 1240.37 316.652 1240.71 316.426C1240.94 316.279 1241.13 316.177 1241.15 316.198C1241.17 316.22 1241.34 316.484 1241.54 316.785C1241.73 317.086 1242.12 317.587 1242.39 317.897C1243.08 318.678 1243.07 318.689 1242.25 318.198ZM1253.27 317.919C1253.59 317.55 1254 317.009 1254.18 316.718C1254.37 316.426 1254.56 316.188 1254.6 316.188C1254.64 316.188 1254.84 316.305 1255.05 316.449L1255.44 316.71L1255.15 316.948C1254.46 317.518 1253.84 317.959 1253.29 318.264L1252.7 318.591L1253.27 317.919ZM1238.96 315.221C1237.82 313.683 1236.98 311.511 1236.86 309.793L1236.83 309.35H1238.06H1239.29L1239.41 310.481C1239.55 311.776 1239.92 313.335 1240.33 314.411C1240.49 314.818 1240.62 315.178 1240.62 315.212C1240.62 315.247 1240.38 315.436 1240.08 315.634L1239.54 315.993L1238.96 315.221ZM1255.57 315.655C1255.31 315.476 1255.08 315.308 1255.06 315.283C1255.03 315.258 1255.13 314.953 1255.27 314.606C1255.78 313.346 1256.16 311.676 1256.35 309.866L1256.4 309.301H1257.64H1258.88L1258.81 309.866C1258.64 311.329 1258.1 312.982 1257.42 314.156C1257.05 314.79 1256.18 315.988 1256.09 315.983C1256.07 315.982 1255.83 315.834 1255.57 315.655ZM1241.57 313.99C1241.16 312.958 1240.81 311.394 1240.67 309.965L1240.6 309.301H1243.91H1247.22V311.416C1247.22 313.365 1247.21 313.532 1247.05 313.532C1246.05 313.537 1243.94 313.93 1242.79 314.326C1242.33 314.484 1241.93 314.614 1241.89 314.614C1241.85 314.614 1241.71 314.333 1241.57 313.99ZM1253.24 314.457C1252.36 314.076 1251.07 313.799 1249.05 313.553L1248.46 313.481V311.415V309.35L1251.75 309.324L1255.04 309.298L1254.98 310.111C1254.87 311.505 1254.5 313.053 1254.02 314.175C1253.82 314.654 1253.75 314.679 1253.24 314.457ZM1236.84 308.049C1236.75 307.903 1237.07 306.099 1237.33 305.316C1237.47 304.883 1237.75 304.191 1237.96 303.778C1238.43 302.821 1239.39 301.43 1239.58 301.43C1239.72 301.43 1240.62 302.08 1240.62 302.184C1240.62 302.247 1240.53 302.513 1240.41 302.774C1239.92 303.899 1239.4 306.198 1239.32 307.628L1239.29 308.071L1238.09 308.098C1237.43 308.114 1236.87 308.091 1236.84 308.049ZM1240.67 307.407C1240.75 306.471 1240.98 305.244 1241.2 304.465C1241.36 303.916 1241.78 302.801 1241.84 302.733C1241.86 302.72 1242.24 302.837 1242.7 302.993C1243.78 303.365 1244.79 303.583 1246.11 303.728L1247.17 303.846L1247.2 305.983L1247.23 308.12H1243.91H1240.6L1240.67 307.407ZM1248.45 307.994C1248.42 307.925 1248.41 306.962 1248.43 305.854L1248.46 303.84L1249.29 303.766C1250.76 303.636 1252.38 303.262 1253.65 302.758C1253.78 302.707 1253.85 302.78 1253.98 303.069C1254.51 304.319 1255.01 306.525 1255.01 307.596V308.12H1251.75C1249.2 308.12 1248.49 308.093 1248.45 307.994ZM1256.35 307.407C1256.2 305.81 1255.82 304.142 1255.29 302.81C1255.12 302.387 1255.04 302.06 1255.09 302.041C1255.15 302.023 1255.37 301.878 1255.59 301.719C1255.81 301.56 1256.04 301.43 1256.09 301.43C1256.25 301.43 1257.24 302.826 1257.67 303.658C1258.32 304.935 1258.85 306.793 1258.85 307.787V308.12H1257.63H1256.41L1256.35 307.407ZM1248.45 302.82C1248.35 302.721 1248.41 298.193 1248.51 298.131C1248.68 298.024 1249.9 298.449 1250.55 298.843C1250.88 299.048 1251.39 299.42 1251.68 299.669C1252.29 300.2 1253.4 301.699 1253.27 301.818C1253.13 301.957 1251.75 302.39 1250.92 302.56C1250.08 302.732 1248.53 302.895 1248.45 302.82ZM1245.5 302.697C1244.57 302.531 1243.63 302.287 1242.97 302.046L1242.31 301.805L1242.6 301.338C1242.99 300.695 1243.99 299.621 1244.65 299.138C1245.23 298.708 1246.25 298.246 1246.85 298.141L1247.22 298.076V300.441V302.807L1246.61 302.796C1246.27 302.79 1245.77 302.745 1245.5 302.697ZM1254.28 300.799C1254.14 300.556 1253.76 300.023 1253.43 299.614C1253.11 299.206 1252.86 298.872 1252.89 298.872C1253.05 298.872 1254.42 299.781 1254.87 300.187C1255.47 300.712 1255.47 300.644 1254.8 301.074L1254.54 301.24L1254.28 300.799ZM1240.65 300.907C1240.47 300.789 1240.33 300.662 1240.33 300.626C1240.33 300.457 1242.58 298.872 1242.82 298.872C1242.87 298.872 1242.7 299.099 1242.45 299.378C1242.2 299.657 1241.81 300.166 1241.58 300.51C1241.35 300.853 1241.12 301.132 1241.07 301.128C1241.01 301.125 1240.82 301.025 1240.65 300.907Z" fill="#00BCF2"/>
</g>
<g id="Building applications for Android, Windows, and Web.">
<path d="M463.652 213V192.84H479.22C479.911 192.84 480.536 193.008 481.096 193.344C481.675 193.68 482.132 194.137 482.468 194.716C482.823 195.295 483 195.929 483 196.62V200.624C483 200.885 482.972 201.137 482.916 201.38C482.879 201.604 482.813 201.819 482.72 202.024C483.056 202.491 483.317 202.957 483.504 203.424C483.709 203.872 483.812 204.329 483.812 204.796V209.22C483.812 209.911 483.635 210.545 483.28 211.124C482.944 211.703 482.487 212.16 481.908 212.496C481.348 212.832 480.723 213 480.032 213H463.652ZM467.516 209.612H479.892C480.041 209.612 480.163 209.565 480.256 209.472C480.368 209.379 480.424 209.257 480.424 209.108V204.936C480.424 204.787 480.368 204.665 480.256 204.572C480.163 204.479 480.041 204.432 479.892 204.432H467.516C467.385 204.432 467.264 204.479 467.152 204.572C467.059 204.665 467.012 204.787 467.012 204.936V209.108C467.012 209.257 467.059 209.379 467.152 209.472C467.264 209.565 467.385 209.612 467.516 209.612ZM467.516 201.044H479.08C479.229 201.044 479.351 200.997 479.444 200.904C479.537 200.792 479.584 200.671 479.584 200.54V196.732C479.584 196.583 479.537 196.461 479.444 196.368C479.351 196.275 479.229 196.228 479.08 196.228H467.516C467.385 196.228 467.264 196.275 467.152 196.368C467.059 196.461 467.012 196.583 467.012 196.732V200.54C467.012 200.671 467.059 200.792 467.152 200.904C467.264 200.997 467.385 201.044 467.516 201.044ZM490.533 213C489.842 213 489.208 212.832 488.629 212.496C488.069 212.141 487.621 211.684 487.285 211.124C486.949 210.564 486.781 209.939 486.781 209.248V196.76H490.113V209.136C490.113 209.285 490.16 209.416 490.253 209.528C490.365 209.621 490.496 209.668 490.645 209.668H499.409C499.558 209.668 499.68 209.621 499.773 209.528C499.885 209.416 499.941 209.285 499.941 209.136V196.76H503.273V209.248C503.273 209.939 503.105 210.564 502.769 211.124C502.433 211.684 501.985 212.141 501.425 212.496C500.865 212.832 500.23 213 499.521 213H490.533ZM506.222 213V196.76H509.554V213H506.222ZM506.222 194.8V191.44H509.554V194.8H506.222ZM516.536 213C515.845 213 515.22 212.832 514.66 212.496C514.1 212.141 513.643 211.684 513.288 211.124C512.952 210.564 512.784 209.939 512.784 209.248V191.412H516.144V209.136C516.144 209.285 516.191 209.416 516.284 209.528C516.396 209.621 516.517 209.668 516.648 209.668H519.672V213H516.536ZM525.185 213C524.494 213 523.86 212.832 523.281 212.496C522.721 212.141 522.273 211.684 521.937 211.124C521.601 210.564 521.433 209.939 521.433 209.248V200.512C521.433 199.821 521.601 199.196 521.937 198.636C522.273 198.076 522.721 197.628 523.281 197.292C523.86 196.937 524.494 196.76 525.185 196.76H534.621V191.44H537.953V213H525.185ZM525.325 209.668H534.089C534.238 209.668 534.36 209.621 534.453 209.528C534.565 209.416 534.621 209.285 534.621 209.136V200.624C534.621 200.475 534.565 200.353 534.453 200.26C534.36 200.148 534.238 200.092 534.089 200.092H525.325C525.176 200.092 525.045 200.148 524.933 200.26C524.84 200.353 524.793 200.475 524.793 200.624V209.136C524.793 209.285 524.84 209.416 524.933 209.528C525.045 209.621 525.176 209.668 525.325 209.668ZM540.921 213V196.76H544.253V213H540.921ZM540.921 194.8V191.44H544.253V194.8H540.921ZM547.485 213V196.76H560.253C560.925 196.76 561.541 196.937 562.101 197.292C562.679 197.628 563.137 198.076 563.473 198.636C563.809 199.196 563.977 199.821 563.977 200.512V213H560.645V200.624C560.645 200.475 560.589 200.353 560.477 200.26C560.383 200.148 560.271 200.092 560.141 200.092H551.349C551.218 200.092 551.097 200.148 550.985 200.26C550.873 200.353 550.817 200.475 550.817 200.624V213H547.485ZM569.252 219.412V216.052H579.136C579.267 216.052 579.379 215.996 579.472 215.884C579.584 215.791 579.64 215.669 579.64 215.52V213H570.232C569.56 213 568.935 212.832 568.356 212.496C567.796 212.141 567.339 211.684 566.984 211.124C566.648 210.564 566.48 209.939 566.48 209.248V200.512C566.48 199.821 566.648 199.196 566.984 198.636C567.339 198.076 567.796 197.628 568.356 197.292C568.935 196.937 569.56 196.76 570.232 196.76H579.248C579.939 196.76 580.564 196.937 581.124 197.292C581.703 197.628 582.151 198.076 582.468 198.636C582.804 199.196 582.972 199.821 582.972 200.512V215.66C582.972 216.351 582.804 216.976 582.468 217.536C582.151 218.115 581.703 218.572 581.124 218.908C580.564 219.244 579.939 219.412 579.248 219.412H569.252ZM570.344 209.668H579.136C579.267 209.668 579.379 209.621 579.472 209.528C579.584 209.416 579.64 209.285 579.64 209.136V200.624C579.64 200.475 579.584 200.353 579.472 200.26C579.379 200.148 579.267 200.092 579.136 200.092H570.344C570.195 200.092 570.064 200.148 569.952 200.26C569.859 200.353 569.812 200.475 569.812 200.624V209.136C569.812 209.285 569.859 209.416 569.952 209.528C570.064 209.621 570.195 209.668 570.344 209.668ZM597.993 213C597.302 213 596.668 212.832 596.089 212.496C595.529 212.141 595.081 211.684 594.745 211.124C594.409 210.564 594.241 209.939 594.241 209.248V203.2H607.401V200.624C607.401 200.475 607.345 200.353 607.233 200.26C607.14 200.148 607.018 200.092 606.869 200.092H594.241V196.76H606.981C607.69 196.76 608.325 196.937 608.885 197.292C609.445 197.628 609.893 198.076 610.229 198.636C610.565 199.196 610.733 199.821 610.733 200.512V213H597.993ZM598.105 209.668H607.401V206.252H597.573V209.136C597.573 209.285 597.62 209.416 597.713 209.528C597.825 209.621 597.956 209.668 598.105 209.668ZM613.739 219.44V196.76H626.507C627.179 196.76 627.795 196.937 628.355 197.292C628.933 197.628 629.391 198.076 629.727 198.636C630.063 199.196 630.231 199.821 630.231 200.512V209.248C630.231 209.939 630.063 210.564 629.727 211.124C629.391 211.684 628.933 212.141 628.355 212.496C627.795 212.832 627.179 213 626.507 213H617.071V219.44H613.739ZM617.603 209.668H626.395C626.525 209.668 626.637 209.621 626.731 209.528C626.843 209.416 626.899 209.285 626.899 209.136V200.624C626.899 200.475 626.843 200.353 626.731 200.26C626.637 200.148 626.525 200.092 626.395 200.092H617.603C617.472 200.092 617.351 200.148 617.239 200.26C617.127 200.353 617.071 200.475 617.071 200.624V209.136C617.071 209.285 617.127 209.416 617.239 209.528C617.351 209.621 617.472 209.668 617.603 209.668ZM632.332 219.44V196.76H645.1C645.772 196.76 646.388 196.937 646.948 197.292C647.527 197.628 647.984 198.076 648.32 198.636C648.656 199.196 648.824 199.821 648.824 200.512V209.248C648.824 209.939 648.656 210.564 648.32 211.124C647.984 211.684 647.527 212.141 646.948 212.496C646.388 212.832 645.772 213 645.1 213H635.664V219.44H632.332ZM636.196 209.668H644.988C645.119 209.668 645.231 209.621 645.324 209.528C645.436 209.416 645.492 209.285 645.492 209.136V200.624C645.492 200.475 645.436 200.353 645.324 200.26C645.231 200.148 645.119 200.092 644.988 200.092H636.196C636.066 200.092 635.944 200.148 635.832 200.26C635.72 200.353 635.664 200.475 635.664 200.624V209.136C635.664 209.285 635.72 209.416 635.832 209.528C635.944 209.621 636.066 209.668 636.196 209.668ZM654.622 213C653.931 213 653.306 212.832 652.746 212.496C652.186 212.141 651.729 211.684 651.374 211.124C651.038 210.564 650.87 209.939 650.87 209.248V191.412H654.23V209.136C654.23 209.285 654.277 209.416 654.37 209.528C654.482 209.621 654.603 209.668 654.734 209.668H657.758V213H654.622ZM660.276 213V196.76H663.608V213H660.276ZM660.276 194.8V191.44H663.608V194.8H660.276ZM670.071 213C669.38 213 668.755 212.832 668.195 212.496C667.635 212.141 667.177 211.684 666.823 211.124C666.487 210.564 666.319 209.939 666.319 209.248V200.512C666.319 199.821 666.487 199.196 666.823 198.636C667.177 198.076 667.635 197.628 668.195 197.292C668.755 196.937 669.38 196.76 670.071 196.76H682.783V200.092H670.183C670.033 200.092 669.903 200.148 669.791 200.26C669.697 200.353 669.651 200.475 669.651 200.624V209.136C669.651 209.285 669.697 209.416 669.791 209.528C669.903 209.621 670.033 209.668 670.183 209.668H682.811V213H670.071ZM689.431 213C688.74 213 688.105 212.832 687.527 212.496C686.967 212.141 686.519 211.684 686.183 211.124C685.847 210.564 685.679 209.939 685.679 209.248V203.2H698.839V200.624C698.839 200.475 698.783 200.353 698.671 200.26C698.577 200.148 698.456 200.092 698.307 200.092H685.679V196.76H698.419C699.128 196.76 699.763 196.937 700.323 197.292C700.883 197.628 701.331 198.076 701.667 198.636C702.003 199.196 702.171 199.821 702.171 200.512V213H689.431ZM689.543 209.668H698.839V206.252H689.011V209.136C689.011 209.285 689.057 209.416 689.151 209.528C689.263 209.621 689.393 209.668 689.543 209.668ZM708.9 213C708.209 213 707.575 212.832 706.996 212.496C706.436 212.141 705.988 211.684 705.652 211.124C705.316 210.564 705.148 209.939 705.148 209.248V191.692H708.48V196.76H714.976V200.092H708.48V209.136C708.48 209.285 708.527 209.416 708.62 209.528C708.732 209.621 708.863 209.668 709.012 209.668H714.976V213H708.9ZM717.261 213V196.76H720.593V213H717.261ZM717.261 194.8V191.44H720.593V194.8H717.261ZM727.11 213C726.419 213 725.794 212.832 725.234 212.496C724.674 212.141 724.216 211.684 723.862 211.124C723.526 210.564 723.358 209.939 723.358 209.248V200.512C723.358 199.821 723.526 199.196 723.862 198.636C724.216 198.076 724.674 197.628 725.234 197.292C725.794 196.937 726.419 196.76 727.11 196.76H736.098C736.807 196.76 737.442 196.937 738.002 197.292C738.562 197.628 739.01 198.076 739.346 198.636C739.682 199.196 739.85 199.821 739.85 200.512V209.248C739.85 209.939 739.682 210.564 739.346 211.124C739.01 211.684 738.562 212.141 738.002 212.496C737.442 212.832 736.807 213 736.098 213H727.11ZM727.222 209.668H735.986C736.135 209.668 736.256 209.621 736.35 209.528C736.462 209.416 736.518 209.285 736.518 209.136V200.624C736.518 200.475 736.462 200.353 736.35 200.26C736.256 200.148 736.135 200.092 735.986 200.092H727.222C727.072 200.092 726.942 200.148 726.83 200.26C726.736 200.353 726.69 200.475 726.69 200.624V209.136C726.69 209.285 726.736 209.416 726.83 209.528C726.942 209.621 727.072 209.668 727.222 209.668ZM742.2 213V196.76H754.968C755.64 196.76 756.256 196.937 756.816 197.292C757.394 197.628 757.852 198.076 758.188 198.636C758.524 199.196 758.692 199.821 758.692 200.512V213H755.36V200.624C755.36 200.475 755.304 200.353 755.192 200.26C755.098 200.148 754.986 200.092 754.856 200.092H746.064C745.933 200.092 745.812 200.148 745.7 200.26C745.588 200.353 745.532 200.475 745.532 200.624V213H742.2ZM764.979 213C764.288 213 763.663 212.832 763.103 212.496C762.543 212.141 762.085 211.684 761.731 211.124C761.395 210.564 761.227 209.939 761.227 209.248V208.716H764.559V209.136C764.559 209.285 764.605 209.416 764.699 209.528C764.811 209.621 764.941 209.668 765.091 209.668H773.855C774.004 209.668 774.125 209.621 774.219 209.528C774.331 209.416 774.387 209.285 774.387 209.136V207.064C774.387 206.933 774.331 206.821 774.219 206.728C774.125 206.616 774.004 206.56 773.855 206.56H764.979C764.288 206.56 763.663 206.392 763.103 206.056C762.543 205.701 762.085 205.244 761.731 204.684C761.395 204.124 761.227 203.499 761.227 202.808V200.512C761.227 199.821 761.395 199.196 761.731 198.636C762.085 198.076 762.543 197.628 763.103 197.292C763.663 196.937 764.288 196.76 764.979 196.76H773.967C774.676 196.76 775.311 196.937 775.871 197.292C776.431 197.628 776.879 198.076 777.215 198.636C777.569 199.196 777.747 199.821 777.747 200.512V201.044H774.387V200.624C774.387 200.475 774.331 200.353 774.219 200.26C774.125 200.148 774.004 200.092 773.855 200.092H765.091C764.941 200.092 764.811 200.148 764.699 200.26C764.605 200.353 764.559 200.475 764.559 200.624V202.696C764.559 202.827 764.605 202.948 764.699 203.06C764.811 203.153 764.941 203.2 765.091 203.2H773.967C774.676 203.2 775.311 203.377 775.871 203.732C776.431 204.068 776.879 204.516 777.215 205.076C777.569 205.636 777.747 206.261 777.747 206.952V209.248C777.747 209.939 777.569 210.564 777.215 211.124C776.879 211.684 776.431 212.141 775.871 212.496C775.311 212.832 774.676 213 773.967 213H764.979ZM788.902 213V195.192C788.902 194.501 789.07 193.876 789.406 193.316C789.742 192.737 790.19 192.28 790.75 191.944C791.329 191.608 791.963 191.44 792.654 191.44H798.73V194.8H792.766C792.617 194.8 792.486 194.856 792.374 194.968C792.281 195.061 792.234 195.173 792.234 195.304V196.76H798.73V200.092H792.234V213H788.902ZM804.602 213C803.911 213 803.286 212.832 802.726 212.496C802.166 212.141 801.709 211.684 801.354 211.124C801.018 210.564 800.85 209.939 800.85 209.248V200.512C800.85 199.821 801.018 199.196 801.354 198.636C801.709 198.076 802.166 197.628 802.726 197.292C803.286 196.937 803.911 196.76 804.602 196.76H813.59C814.299 196.76 814.934 196.937 815.494 197.292C816.054 197.628 816.502 198.076 816.838 198.636C817.174 199.196 817.342 199.821 817.342 200.512V209.248C817.342 209.939 817.174 210.564 816.838 211.124C816.502 211.684 816.054 212.141 815.494 212.496C814.934 212.832 814.299 213 813.59 213H804.602ZM804.714 209.668H813.478C813.627 209.668 813.749 209.621 813.842 209.528C813.954 209.416 814.01 209.285 814.01 209.136V200.624C814.01 200.475 813.954 200.353 813.842 200.26C813.749 200.148 813.627 200.092 813.478 200.092H804.714C804.565 200.092 804.434 200.148 804.322 200.26C804.229 200.353 804.182 200.475 804.182 200.624V209.136C804.182 209.285 804.229 209.416 804.322 209.528C804.434 209.621 804.565 209.668 804.714 209.668ZM819.745 213V200.512C819.745 199.821 819.913 199.196 820.249 198.636C820.604 198.076 821.061 197.628 821.621 197.292C822.2 196.937 822.825 196.76 823.497 196.76H832.541V200.092H823.609C823.46 200.092 823.329 200.148 823.217 200.26C823.124 200.353 823.077 200.475 823.077 200.624V213H819.745ZM963.11 216.696V209.808H966.442V212.972C966.442 213.569 966.292 214.12 965.994 214.624C965.714 215.128 965.322 215.567 964.818 215.94C964.314 216.313 963.744 216.565 963.11 216.696ZM1119.65 216.696V209.808H1122.98V212.972C1122.98 213.569 1122.84 214.12 1122.54 214.624C1122.26 215.128 1121.86 215.567 1121.36 215.94C1120.86 216.313 1120.29 216.565 1119.65 216.696ZM1137.81 213C1137.12 213 1136.49 212.832 1135.91 212.496C1135.35 212.141 1134.9 211.684 1134.57 211.124C1134.23 210.564 1134.06 209.939 1134.06 209.248V203.2H1147.22V200.624C1147.22 200.475 1147.17 200.353 1147.05 200.26C1146.96 200.148 1146.84 200.092 1146.69 200.092H1134.06V196.76H1146.8C1147.51 196.76 1148.15 196.937 1148.71 197.292C1149.27 197.628 1149.71 198.076 1150.05 198.636C1150.39 199.196 1150.55 199.821 1150.55 200.512V213H1137.81ZM1137.93 209.668H1147.22V206.252H1137.39V209.136C1137.39 209.285 1137.44 209.416 1137.53 209.528C1137.65 209.621 1137.78 209.668 1137.93 209.668ZM1153.23 213V196.76H1166C1166.67 196.76 1167.29 196.937 1167.85 197.292C1168.43 197.628 1168.88 198.076 1169.22 198.636C1169.55 199.196 1169.72 199.821 1169.72 200.512V213H1166.39V200.624C1166.39 200.475 1166.33 200.353 1166.22 200.26C1166.13 200.148 1166.02 200.092 1165.89 200.092H1157.09C1156.96 200.092 1156.84 200.148 1156.73 200.26C1156.62 200.353 1156.56 200.475 1156.56 200.624V213H1153.23ZM1175.61 213C1174.92 213 1174.29 212.832 1173.71 212.496C1173.15 212.141 1172.7 211.684 1172.36 211.124C1172.03 210.564 1171.86 209.939 1171.86 209.248V200.512C1171.86 199.821 1172.03 199.196 1172.36 198.636C1172.7 198.076 1173.15 197.628 1173.71 197.292C1174.29 196.937 1174.92 196.76 1175.61 196.76H1185.05V191.44H1188.38V213H1175.61ZM1175.75 209.668H1184.51C1184.66 209.668 1184.79 209.621 1184.88 209.528C1184.99 209.416 1185.05 209.285 1185.05 209.136V200.624C1185.05 200.475 1184.99 200.353 1184.88 200.26C1184.79 200.148 1184.66 200.092 1184.51 200.092H1175.75C1175.6 200.092 1175.47 200.148 1175.36 200.26C1175.27 200.353 1175.22 200.475 1175.22 200.624V209.136C1175.22 209.285 1175.27 209.416 1175.36 209.528C1175.47 209.621 1175.6 209.668 1175.75 209.668ZM1269.17 213V209.668H1272.5V213H1269.17Z" fill="#51FF82"/>
<path d="M842.772 213V196.62C842.772 195.929 842.94 195.295 843.276 194.716C843.612 194.137 844.07 193.68 844.648 193.344C845.227 193.008 845.862 192.84 846.552 192.84H859.152C859.843 192.84 860.468 193.008 861.028 193.344C861.607 193.68 862.064 194.137 862.4 194.716C862.755 195.295 862.932 195.929 862.932 196.62V213H859.544V206.084H846.132V213H842.772ZM846.132 202.724H859.544V196.732C859.544 196.583 859.488 196.461 859.376 196.368C859.283 196.275 859.162 196.228 859.012 196.228H846.636C846.506 196.228 846.384 196.275 846.272 196.368C846.179 196.461 846.132 196.583 846.132 196.732V202.724ZM866.067 213V196.76H878.835C879.507 196.76 880.123 196.937 880.683 197.292C881.261 197.628 881.719 198.076 882.055 198.636C882.391 199.196 882.559 199.821 882.559 200.512V213H879.227V200.624C879.227 200.475 879.171 200.353 879.059 200.26C878.965 200.148 878.853 200.092 878.723 200.092H869.931C869.8 200.092 869.679 200.148 869.567 200.26C869.455 200.353 869.399 200.475 869.399 200.624V213H866.067ZM888.447 213C887.756 213 887.121 212.832 886.543 212.496C885.983 212.141 885.535 211.684 885.199 211.124C884.863 210.564 884.695 209.939 884.695 209.248V200.512C884.695 199.821 884.863 199.196 885.199 198.636C885.535 198.076 885.983 197.628 886.543 197.292C887.121 196.937 887.756 196.76 888.447 196.76H897.883V191.44H901.215V213H888.447ZM888.587 209.668H897.351C897.5 209.668 897.621 209.621 897.715 209.528C897.827 209.416 897.883 209.285 897.883 209.136V200.624C897.883 200.475 897.827 200.353 897.715 200.26C897.621 200.148 897.5 200.092 897.351 200.092H888.587C888.437 200.092 888.307 200.148 888.195 200.26C888.101 200.353 888.055 200.475 888.055 200.624V209.136C888.055 209.285 888.101 209.416 888.195 209.528C888.307 209.621 888.437 209.668 888.587 209.668ZM904.046 213V200.512C904.046 199.821 904.214 199.196 904.55 198.636C904.905 198.076 905.362 197.628 905.922 197.292C906.501 196.937 907.126 196.76 907.798 196.76H916.842V200.092H907.91C907.761 200.092 907.63 200.148 907.518 200.26C907.425 200.353 907.378 200.475 907.378 200.624V213H904.046ZM922.289 213C921.599 213 920.973 212.832 920.413 212.496C919.853 212.141 919.396 211.684 919.041 211.124C918.705 210.564 918.537 209.939 918.537 209.248V200.512C918.537 199.821 918.705 199.196 919.041 198.636C919.396 198.076 919.853 197.628 920.413 197.292C920.973 196.937 921.599 196.76 922.289 196.76H931.277C931.987 196.76 932.621 196.937 933.181 197.292C933.741 197.628 934.189 198.076 934.525 198.636C934.861 199.196 935.029 199.821 935.029 200.512V209.248C935.029 209.939 934.861 210.564 934.525 211.124C934.189 211.684 933.741 212.141 933.181 212.496C932.621 212.832 931.987 213 931.277 213H922.289ZM922.401 209.668H931.165C931.315 209.668 931.436 209.621 931.529 209.528C931.641 209.416 931.697 209.285 931.697 209.136V200.624C931.697 200.475 931.641 200.353 931.529 200.26C931.436 200.148 931.315 200.092 931.165 200.092H922.401C922.252 200.092 922.121 200.148 922.009 200.26C921.916 200.353 921.869 200.475 921.869 200.624V209.136C921.869 209.285 921.916 209.416 922.009 209.528C922.121 209.621 922.252 209.668 922.401 209.668ZM937.952 213V196.76H941.284V213H937.952ZM937.952 194.8V191.44H941.284V194.8H937.952ZM947.318 213C946.627 213 945.993 212.832 945.414 212.496C944.854 212.141 944.406 211.684 944.07 211.124C943.734 210.564 943.566 209.939 943.566 209.248V200.512C943.566 199.821 943.734 199.196 944.07 198.636C944.406 198.076 944.854 197.628 945.414 197.292C945.993 196.937 946.627 196.76 947.318 196.76H956.754V191.44H960.086V213H947.318ZM947.458 209.668H956.222C956.371 209.668 956.493 209.621 956.586 209.528C956.698 209.416 956.754 209.285 956.754 209.136V200.624C956.754 200.475 956.698 200.353 956.586 200.26C956.493 200.148 956.371 200.092 956.222 200.092H947.458C947.309 200.092 947.178 200.148 947.066 200.26C946.973 200.353 946.926 200.475 946.926 200.624V209.136C946.926 209.285 946.973 209.416 947.066 209.528C947.178 209.621 947.309 209.668 947.458 209.668ZM984.379 213L977.043 192.84H980.627L985.723 206.812L990.819 192.84H994.235L999.359 206.812L1004.45 192.84H1008.04L1000.7 213H997.987L992.526 198.02L987.067 213H984.379ZM1009.78 213V196.76H1013.12V213H1009.78ZM1009.78 194.8V191.44H1013.12V194.8H1009.78ZM1016.35 213V196.76H1029.12C1029.79 196.76 1030.4 196.937 1030.96 197.292C1031.54 197.628 1032 198.076 1032.34 198.636C1032.67 199.196 1032.84 199.821 1032.84 200.512V213H1029.51V200.624C1029.51 200.475 1029.45 200.353 1029.34 200.26C1029.25 200.148 1029.13 200.092 1029 200.092H1020.21C1020.08 200.092 1019.96 200.148 1019.85 200.26C1019.74 200.353 1019.68 200.475 1019.68 200.624V213H1016.35ZM1038.73 213C1038.04 213 1037.4 212.832 1036.82 212.496C1036.26 212.141 1035.82 211.684 1035.48 211.124C1035.14 210.564 1034.98 209.939 1034.98 209.248V200.512C1034.98 199.821 1035.14 199.196 1035.48 198.636C1035.82 198.076 1036.26 197.628 1036.82 197.292C1037.4 196.937 1038.04 196.76 1038.73 196.76H1048.16V191.44H1051.5V213H1038.73ZM1038.87 209.668H1047.63C1047.78 209.668 1047.9 209.621 1048 209.528C1048.11 209.416 1048.16 209.285 1048.16 209.136V200.624C1048.16 200.475 1048.11 200.353 1048 200.26C1047.9 200.148 1047.78 200.092 1047.63 200.092H1038.87C1038.72 200.092 1038.59 200.148 1038.48 200.26C1038.38 200.353 1038.34 200.475 1038.34 200.624V209.136C1038.34 209.285 1038.38 209.416 1038.48 209.528C1038.59 209.621 1038.72 209.668 1038.87 209.668ZM1057.53 213C1056.84 213 1056.22 212.832 1055.66 212.496C1055.1 212.141 1054.64 211.684 1054.28 211.124C1053.95 210.564 1053.78 209.939 1053.78 209.248V200.512C1053.78 199.821 1053.95 199.196 1054.28 198.636C1054.64 198.076 1055.1 197.628 1055.66 197.292C1056.22 196.937 1056.84 196.76 1057.53 196.76H1066.52C1067.23 196.76 1067.86 196.937 1068.42 197.292C1068.98 197.628 1069.43 198.076 1069.77 198.636C1070.1 199.196 1070.27 199.821 1070.27 200.512V209.248C1070.27 209.939 1070.1 210.564 1069.77 211.124C1069.43 211.684 1068.98 212.141 1068.42 212.496C1067.86 212.832 1067.23 213 1066.52 213H1057.53ZM1057.64 209.668H1066.41C1066.56 209.668 1066.68 209.621 1066.77 209.528C1066.88 209.416 1066.94 209.285 1066.94 209.136V200.624C1066.94 200.475 1066.88 200.353 1066.77 200.26C1066.68 200.148 1066.56 200.092 1066.41 200.092H1057.64C1057.49 200.092 1057.36 200.148 1057.25 200.26C1057.16 200.353 1057.11 200.475 1057.11 200.624V209.136C1057.11 209.285 1057.16 209.416 1057.25 209.528C1057.36 209.621 1057.49 209.668 1057.64 209.668ZM1077.6 213L1071.21 196.76H1074.77L1078.94 206.924L1083.37 196.76H1086.98L1091.68 206.98L1095.55 196.76H1099.13L1093 213H1090.37L1085.19 201.548L1080.26 213H1077.6ZM1104.04 213C1103.35 213 1102.73 212.832 1102.17 212.496C1101.61 212.141 1101.15 211.684 1100.79 211.124C1100.46 210.564 1100.29 209.939 1100.29 209.248V208.716H1103.62V209.136C1103.62 209.285 1103.67 209.416 1103.76 209.528C1103.87 209.621 1104 209.668 1104.15 209.668H1112.92C1113.07 209.668 1113.19 209.621 1113.28 209.528C1113.39 209.416 1113.45 209.285 1113.45 209.136V207.064C1113.45 206.933 1113.39 206.821 1113.28 206.728C1113.19 206.616 1113.07 206.56 1112.92 206.56H1104.04C1103.35 206.56 1102.73 206.392 1102.17 206.056C1101.61 205.701 1101.15 205.244 1100.79 204.684C1100.46 204.124 1100.29 203.499 1100.29 202.808V200.512C1100.29 199.821 1100.46 199.196 1100.79 198.636C1101.15 198.076 1101.61 197.628 1102.17 197.292C1102.73 196.937 1103.35 196.76 1104.04 196.76H1113.03C1113.74 196.76 1114.37 196.937 1114.93 197.292C1115.49 197.628 1115.94 198.076 1116.28 198.636C1116.63 199.196 1116.81 199.821 1116.81 200.512V201.044H1113.45V200.624C1113.45 200.475 1113.39 200.353 1113.28 200.26C1113.19 200.148 1113.07 200.092 1112.92 200.092H1104.15C1104 200.092 1103.87 200.148 1103.76 200.26C1103.67 200.353 1103.62 200.475 1103.62 200.624V202.696C1103.62 202.827 1103.67 202.948 1103.76 203.06C1103.87 203.153 1104 203.2 1104.15 203.2H1113.03C1113.74 203.2 1114.37 203.377 1114.93 203.732C1115.49 204.068 1115.94 204.516 1116.28 205.076C1116.63 205.636 1116.81 206.261 1116.81 206.952V209.248C1116.81 209.939 1116.63 210.564 1116.28 211.124C1115.94 211.684 1115.49 212.141 1114.93 212.496C1114.37 212.832 1113.74 213 1113.03 213H1104.04ZM1206.55 213L1199.21 192.84H1202.79L1207.89 206.812L1212.99 192.84H1216.4L1221.53 206.812L1226.62 192.84H1230.21L1222.87 213H1220.15L1214.69 198.02L1209.23 213H1206.55ZM1234.77 213C1234.08 213 1233.46 212.832 1232.9 212.496C1232.34 212.141 1231.88 211.684 1231.53 211.124C1231.19 210.564 1231.02 209.939 1231.02 209.248V200.512C1231.02 199.821 1231.19 199.196 1231.53 198.636C1231.88 198.076 1232.34 197.628 1232.9 197.292C1233.46 196.937 1234.08 196.76 1234.77 196.76H1243.76C1244.47 196.76 1245.11 196.937 1245.67 197.292C1246.23 197.628 1246.67 198.076 1247.01 198.636C1247.35 199.196 1247.51 199.821 1247.51 200.512V206.56H1234.35V209.136C1234.35 209.285 1234.4 209.416 1234.49 209.528C1234.61 209.621 1234.74 209.668 1234.89 209.668H1247.51V213H1234.77ZM1234.35 203.508H1244.18V200.624C1244.18 200.475 1244.13 200.353 1244.01 200.26C1243.92 200.148 1243.8 200.092 1243.65 200.092H1234.89C1234.74 200.092 1234.61 200.148 1234.49 200.26C1234.4 200.353 1234.35 200.475 1234.35 200.624V203.508ZM1250.49 213V191.44H1253.82V196.76H1263.26C1263.93 196.76 1264.55 196.937 1265.11 197.292C1265.69 197.628 1266.14 198.076 1266.48 198.636C1266.82 199.196 1266.98 199.821 1266.98 200.512V209.248C1266.98 209.939 1266.82 210.564 1266.48 211.124C1266.14 211.684 1265.69 212.141 1265.11 212.496C1264.55 212.832 1263.93 213 1263.26 213H1250.49ZM1254.36 209.668H1263.15C1263.28 209.668 1263.39 209.621 1263.48 209.528C1263.6 209.416 1263.65 209.285 1263.65 209.136V200.624C1263.65 200.475 1263.6 200.353 1263.48 200.26C1263.39 200.148 1263.28 200.092 1263.15 200.092H1254.36C1254.23 200.092 1254.1 200.148 1253.99 200.26C1253.88 200.353 1253.82 200.475 1253.82 200.624V209.136C1253.82 209.285 1253.88 209.416 1253.99 209.528C1254.1 209.621 1254.23 209.668 1254.36 209.668Z" fill="white"/>
</g>
<g id="Expert in creating responsive and adaptive frontend.">
<path d="M463.624 148V127.84H482.132V131.228H467.012V136.212H479.192V139.628H467.012V144.612H482.132V148H463.624ZM484.726 148V147.244L490.886 139.74L484.726 132.516V131.76H488.478L493.07 137.164L497.634 131.76H501.386V132.516L495.226 139.74L501.414 147.244V148H497.662L493.07 142.372L488.478 148H484.726ZM504.336 154.44V131.76H517.104C517.776 131.76 518.392 131.937 518.952 132.292C519.531 132.628 519.988 133.076 520.324 133.636C520.66 134.196 520.828 134.821 520.828 135.512V144.248C520.828 144.939 520.66 145.564 520.324 146.124C519.988 146.684 519.531 147.141 518.952 147.496C518.392 147.832 517.776 148 517.104 148H507.668V154.44H504.336ZM508.2 144.668H516.992C517.123 144.668 517.235 144.621 517.328 144.528C517.44 144.416 517.496 144.285 517.496 144.136V135.624C517.496 135.475 517.44 135.353 517.328 135.26C517.235 135.148 517.123 135.092 516.992 135.092H508.2C508.07 135.092 507.948 135.148 507.836 135.26C507.724 135.353 507.668 135.475 507.668 135.624V144.136C507.668 144.285 507.724 144.416 507.836 144.528C507.948 144.621 508.07 144.668 508.2 144.668ZM526.598 148C525.907 148 525.282 147.832 524.722 147.496C524.162 147.141 523.705 146.684 523.35 146.124C523.014 145.564 522.846 144.939 522.846 144.248V135.512C522.846 134.821 523.014 134.196 523.35 133.636C523.705 133.076 524.162 132.628 524.722 132.292C525.282 131.937 525.907 131.76 526.598 131.76H535.586C536.295 131.76 536.93 131.937 537.49 132.292C538.05 132.628 538.498 133.076 538.834 133.636C539.17 134.196 539.338 134.821 539.338 135.512V141.56H526.178V144.136C526.178 144.285 526.225 144.416 526.318 144.528C526.43 144.621 526.561 144.668 526.71 144.668H539.338V148H526.598ZM526.178 138.508H536.006V135.624C536.006 135.475 535.95 135.353 535.838 135.26C535.745 135.148 535.623 135.092 535.474 135.092H526.71C526.561 135.092 526.43 135.148 526.318 135.26C526.225 135.353 526.178 135.475 526.178 135.624V138.508ZM542.097 148V135.512C542.097 134.821 542.265 134.196 542.601 133.636C542.955 133.076 543.413 132.628 543.973 132.292C544.551 131.937 545.177 131.76 545.849 131.76H554.893V135.092H545.961C545.811 135.092 545.681 135.148 545.569 135.26C545.475 135.353 545.429 135.475 545.429 135.624V148H542.097ZM560.396 148C559.705 148 559.071 147.832 558.492 147.496C557.932 147.141 557.484 146.684 557.148 146.124C556.812 145.564 556.644 144.939 556.644 144.248V126.692H559.976V131.76H566.472V135.092H559.976V144.136C559.976 144.285 560.023 144.416 560.116 144.528C560.228 144.621 560.359 144.668 560.508 144.668H566.472V148H560.396ZM577.042 148V131.76H580.374V148H577.042ZM577.042 129.8V126.44H580.374V129.8H577.042ZM583.606 148V131.76H596.374C597.046 131.76 597.662 131.937 598.222 132.292C598.8 132.628 599.258 133.076 599.594 133.636C599.93 134.196 600.098 134.821 600.098 135.512V148H596.766V135.624C596.766 135.475 596.71 135.353 596.598 135.26C596.504 135.148 596.392 135.092 596.262 135.092H587.47C587.339 135.092 587.218 135.148 587.106 135.26C586.994 135.353 586.938 135.475 586.938 135.624V148H583.606ZM615.11 148C614.419 148 613.794 147.832 613.234 147.496C612.674 147.141 612.216 146.684 611.862 146.124C611.526 145.564 611.358 144.939 611.358 144.248V135.512C611.358 134.821 611.526 134.196 611.862 133.636C612.216 133.076 612.674 132.628 613.234 132.292C613.794 131.937 614.419 131.76 615.11 131.76H627.822V135.092H615.222C615.072 135.092 614.942 135.148 614.83 135.26C614.736 135.353 614.69 135.475 614.69 135.624V144.136C614.69 144.285 614.736 144.416 614.83 144.528C614.942 144.621 615.072 144.668 615.222 144.668H627.85V148H615.11ZM630.718 148V135.512C630.718 134.821 630.886 134.196 631.222 133.636C631.576 133.076 632.034 132.628 632.594 132.292C633.172 131.937 633.798 131.76 634.47 131.76H643.514V135.092H634.582C634.432 135.092 634.302 135.148 634.19 135.26C634.096 135.353 634.05 135.475 634.05 135.624V148H630.718ZM649.098 148C648.407 148 647.782 147.832 647.222 147.496C646.662 147.141 646.205 146.684 645.85 146.124C645.514 145.564 645.346 144.939 645.346 144.248V135.512C645.346 134.821 645.514 134.196 645.85 133.636C646.205 133.076 646.662 132.628 647.222 132.292C647.782 131.937 648.407 131.76 649.098 131.76H658.086C658.795 131.76 659.43 131.937 659.99 132.292C660.55 132.628 660.998 133.076 661.334 133.636C661.67 134.196 661.838 134.821 661.838 135.512V141.56H648.678V144.136C648.678 144.285 648.725 144.416 648.818 144.528C648.93 144.621 649.061 144.668 649.21 144.668H661.838V148H649.098ZM648.678 138.508H658.506V135.624C658.506 135.475 658.45 135.353 658.338 135.26C658.245 135.148 658.123 135.092 657.974 135.092H649.21C649.061 135.092 648.93 135.148 648.818 135.26C648.725 135.353 648.678 135.475 648.678 135.624V138.508ZM668.513 148C667.822 148 667.187 147.832 666.609 147.496C666.049 147.141 665.601 146.684 665.265 146.124C664.929 145.564 664.761 144.939 664.761 144.248V138.2H677.921V135.624C677.921 135.475 677.865 135.353 677.753 135.26C677.659 135.148 677.538 135.092 677.389 135.092H664.761V131.76H677.501C678.21 131.76 678.845 131.937 679.405 132.292C679.965 132.628 680.413 133.076 680.749 133.636C681.085 134.196 681.253 134.821 681.253 135.512V148H668.513ZM668.625 144.668H677.921V141.252H668.093V144.136C668.093 144.285 668.139 144.416 668.233 144.528C668.345 144.621 668.475 144.668 668.625 144.668ZM687.982 148C687.291 148 686.657 147.832 686.078 147.496C685.518 147.141 685.07 146.684 684.734 146.124C684.398 145.564 684.23 144.939 684.23 144.248V126.692H687.562V131.76H694.058V135.092H687.562V144.136C687.562 144.285 687.609 144.416 687.702 144.528C687.814 144.621 687.945 144.668 688.094 144.668H694.058V148H687.982ZM696.343 148V131.76H699.675V148H696.343ZM696.343 129.8V126.44H699.675V129.8H696.343ZM702.907 148V131.76H715.675C716.347 131.76 716.963 131.937 717.523 132.292C718.101 132.628 718.559 133.076 718.895 133.636C719.231 134.196 719.399 134.821 719.399 135.512V148H716.067V135.624C716.067 135.475 716.011 135.353 715.899 135.26C715.805 135.148 715.693 135.092 715.563 135.092H706.771C706.64 135.092 706.519 135.148 706.407 135.26C706.295 135.353 706.239 135.475 706.239 135.624V148H702.907ZM724.674 154.412V151.052H734.558C734.689 151.052 734.801 150.996 734.894 150.884C735.006 150.791 735.062 150.669 735.062 150.52V148H725.654C724.982 148 724.357 147.832 723.778 147.496C723.218 147.141 722.761 146.684 722.406 146.124C722.07 145.564 721.902 144.939 721.902 144.248V135.512C721.902 134.821 722.07 134.196 722.406 133.636C722.761 133.076 723.218 132.628 723.778 132.292C724.357 131.937 724.982 131.76 725.654 131.76H734.67C735.361 131.76 735.986 131.937 736.546 132.292C737.125 132.628 737.573 133.076 737.89 133.636C738.226 134.196 738.394 134.821 738.394 135.512V150.66C738.394 151.351 738.226 151.976 737.89 152.536C737.573 153.115 737.125 153.572 736.546 153.908C735.986 154.244 735.361 154.412 734.67 154.412H724.674ZM725.766 144.668H734.558C734.689 144.668 734.801 144.621 734.894 144.528C735.006 144.416 735.062 144.285 735.062 144.136V135.624C735.062 135.475 735.006 135.353 734.894 135.26C734.801 135.148 734.689 135.092 734.558 135.092H725.766C725.617 135.092 725.486 135.148 725.374 135.26C725.281 135.353 725.234 135.475 725.234 135.624V144.136C725.234 144.285 725.281 144.416 725.374 144.528C725.486 144.621 725.617 144.668 725.766 144.668ZM937.466 148C936.775 148 936.14 147.832 935.562 147.496C935.002 147.141 934.554 146.684 934.218 146.124C933.882 145.564 933.714 144.939 933.714 144.248V138.2H946.874V135.624C946.874 135.475 946.818 135.353 946.706 135.26C946.612 135.148 946.491 135.092 946.342 135.092H933.714V131.76H946.454C947.163 131.76 947.798 131.937 948.358 132.292C948.918 132.628 949.366 133.076 949.702 133.636C950.038 134.196 950.206 134.821 950.206 135.512V148H937.466ZM937.578 144.668H946.874V141.252H937.046V144.136C937.046 144.285 937.092 144.416 937.186 144.528C937.298 144.621 937.428 144.668 937.578 144.668ZM952.883 148V131.76H965.651C966.323 131.76 966.939 131.937 967.499 132.292C968.078 132.628 968.535 133.076 968.871 133.636C969.207 134.196 969.375 134.821 969.375 135.512V148H966.043V135.624C966.043 135.475 965.987 135.353 965.875 135.26C965.782 135.148 965.67 135.092 965.539 135.092H956.747C956.616 135.092 956.495 135.148 956.383 135.26C956.271 135.353 956.215 135.475 956.215 135.624V148H952.883ZM975.263 148C974.573 148 973.938 147.832 973.359 147.496C972.799 147.141 972.351 146.684 972.015 146.124C971.679 145.564 971.511 144.939 971.511 144.248V135.512C971.511 134.821 971.679 134.196 972.015 133.636C972.351 133.076 972.799 132.628 973.359 132.292C973.938 131.937 974.573 131.76 975.263 131.76H984.699V126.44H988.031V148H975.263ZM975.403 144.668H984.167C984.317 144.668 984.438 144.621 984.531 144.528C984.643 144.416 984.699 144.285 984.699 144.136V135.624C984.699 135.475 984.643 135.353 984.531 135.26C984.438 135.148 984.317 135.092 984.167 135.092H975.403C975.254 135.092 975.123 135.148 975.011 135.26C974.918 135.353 974.871 135.475 974.871 135.624V144.136C974.871 144.285 974.918 144.416 975.011 144.528C975.123 144.621 975.254 144.668 975.403 144.668ZM1142.87 148V130.192C1142.87 129.501 1143.03 128.876 1143.37 128.316C1143.71 127.737 1144.15 127.28 1144.71 126.944C1145.29 126.608 1145.93 126.44 1146.62 126.44H1152.69V129.8H1146.73C1146.58 129.8 1146.45 129.856 1146.34 129.968C1146.25 130.061 1146.2 130.173 1146.2 130.304V131.76H1152.69V135.092H1146.2V148H1142.87ZM1154.71 148V135.512C1154.71 134.821 1154.87 134.196 1155.21 133.636C1155.56 133.076 1156.02 132.628 1156.58 132.292C1157.16 131.937 1157.79 131.76 1158.46 131.76H1167.5V135.092H1158.57C1158.42 135.092 1158.29 135.148 1158.18 135.26C1158.08 135.353 1158.04 135.475 1158.04 135.624V148H1154.71ZM1172.95 148C1172.26 148 1171.63 147.832 1171.07 147.496C1170.51 147.141 1170.06 146.684 1169.7 146.124C1169.37 145.564 1169.2 144.939 1169.2 144.248V135.512C1169.2 134.821 1169.37 134.196 1169.7 133.636C1170.06 133.076 1170.51 132.628 1171.07 132.292C1171.63 131.937 1172.26 131.76 1172.95 131.76H1181.94C1182.65 131.76 1183.28 131.937 1183.84 132.292C1184.4 132.628 1184.85 133.076 1185.19 133.636C1185.52 134.196 1185.69 134.821 1185.69 135.512V144.248C1185.69 144.939 1185.52 145.564 1185.19 146.124C1184.85 146.684 1184.4 147.141 1183.84 147.496C1183.28 147.832 1182.65 148 1181.94 148H1172.95ZM1173.06 144.668H1181.83C1181.97 144.668 1182.1 144.621 1182.19 144.528C1182.3 144.416 1182.36 144.285 1182.36 144.136V135.624C1182.36 135.475 1182.3 135.353 1182.19 135.26C1182.1 135.148 1181.97 135.092 1181.83 135.092H1173.06C1172.91 135.092 1172.78 135.148 1172.67 135.26C1172.58 135.353 1172.53 135.475 1172.53 135.624V144.136C1172.53 144.285 1172.58 144.416 1172.67 144.528C1172.78 144.621 1172.91 144.668 1173.06 144.668ZM1188.04 148V131.76H1200.81C1201.48 131.76 1202.1 131.937 1202.66 132.292C1203.23 132.628 1203.69 133.076 1204.03 133.636C1204.36 134.196 1204.53 134.821 1204.53 135.512V148H1201.2V135.624C1201.2 135.475 1201.14 135.353 1201.03 135.26C1200.94 135.148 1200.83 135.092 1200.7 135.092H1191.9C1191.77 135.092 1191.65 135.148 1191.54 135.26C1191.43 135.353 1191.37 135.475 1191.37 135.624V148H1188.04ZM1211.26 148C1210.57 148 1209.93 147.832 1209.36 147.496C1208.8 147.141 1208.35 146.684 1208.01 146.124C1207.68 145.564 1207.51 144.939 1207.51 144.248V126.692H1210.84V131.76H1217.34V135.092H1210.84V144.136C1210.84 144.285 1210.89 144.416 1210.98 144.528C1211.09 144.621 1211.22 144.668 1211.37 144.668H1217.34V148H1211.26ZM1223.29 148C1222.6 148 1221.97 147.832 1221.41 147.496C1220.85 147.141 1220.4 146.684 1220.04 146.124C1219.71 145.564 1219.54 144.939 1219.54 144.248V135.512C1219.54 134.821 1219.71 134.196 1220.04 133.636C1220.4 133.076 1220.85 132.628 1221.41 132.292C1221.97 131.937 1222.6 131.76 1223.29 131.76H1232.28C1232.99 131.76 1233.62 131.937 1234.18 132.292C1234.74 132.628 1235.19 133.076 1235.53 133.636C1235.86 134.196 1236.03 134.821 1236.03 135.512V141.56H1222.87V144.136C1222.87 144.285 1222.92 144.416 1223.01 144.528C1223.12 144.621 1223.25 144.668 1223.4 144.668H1236.03V148H1223.29ZM1222.87 138.508H1232.7V135.624C1232.7 135.475 1232.64 135.353 1232.53 135.26C1232.44 135.148 1232.31 135.092 1232.17 135.092H1223.4C1223.25 135.092 1223.12 135.148 1223.01 135.26C1222.92 135.353 1222.87 135.475 1222.87 135.624V138.508ZM1239.01 148V131.76H1251.78C1252.45 131.76 1253.06 131.937 1253.62 132.292C1254.2 132.628 1254.66 133.076 1255 133.636C1255.33 134.196 1255.5 134.821 1255.5 135.512V148H1252.17V135.624C1252.17 135.475 1252.11 135.353 1252 135.26C1251.91 135.148 1251.79 135.092 1251.66 135.092H1242.87C1242.74 135.092 1242.62 135.148 1242.51 135.26C1242.4 135.353 1242.34 135.475 1242.34 135.624V148H1239.01ZM1261.39 148C1260.7 148 1260.06 147.832 1259.48 147.496C1258.92 147.141 1258.48 146.684 1258.14 146.124C1257.8 145.564 1257.64 144.939 1257.64 144.248V135.512C1257.64 134.821 1257.8 134.196 1258.14 133.636C1258.48 133.076 1258.92 132.628 1259.48 132.292C1260.06 131.937 1260.7 131.76 1261.39 131.76H1270.82V126.44H1274.16V148H1261.39ZM1261.53 144.668H1270.29C1270.44 144.668 1270.56 144.621 1270.66 144.528C1270.77 144.416 1270.82 144.285 1270.82 144.136V135.624C1270.82 135.475 1270.77 135.353 1270.66 135.26C1270.56 135.148 1270.44 135.092 1270.29 135.092H1261.53C1261.38 135.092 1261.25 135.148 1261.14 135.26C1261.04 135.353 1261 135.475 1261 135.624V144.136C1261 144.285 1261.04 144.416 1261.14 144.528C1261.25 144.621 1261.38 144.668 1261.53 144.668ZM1277.18 148V144.668H1280.51V148H1277.18Z" fill="#51FF82"/>
<path d="M749.663 148V135.512C749.663 134.821 749.831 134.196 750.167 133.636C750.522 133.076 750.979 132.628 751.539 132.292C752.118 131.937 752.743 131.76 753.415 131.76H762.459V135.092H753.527C753.378 135.092 753.247 135.148 753.135 135.26C753.042 135.353 752.995 135.475 752.995 135.624V148H749.663ZM768.043 148C767.353 148 766.727 147.832 766.167 147.496C765.607 147.141 765.15 146.684 764.795 146.124C764.459 145.564 764.291 144.939 764.291 144.248V135.512C764.291 134.821 764.459 134.196 764.795 133.636C765.15 133.076 765.607 132.628 766.167 132.292C766.727 131.937 767.353 131.76 768.043 131.76H777.031C777.741 131.76 778.375 131.937 778.935 132.292C779.495 132.628 779.943 133.076 780.279 133.636C780.615 134.196 780.783 134.821 780.783 135.512V141.56H767.623V144.136C767.623 144.285 767.67 144.416 767.763 144.528C767.875 144.621 768.006 144.668 768.155 144.668H780.783V148H768.043ZM767.623 138.508H777.451V135.624C777.451 135.475 777.395 135.353 777.283 135.26C777.19 135.148 777.069 135.092 776.919 135.092H768.155C768.006 135.092 767.875 135.148 767.763 135.26C767.67 135.353 767.623 135.475 767.623 135.624V138.508ZM787.209 148C786.519 148 785.893 147.832 785.333 147.496C784.773 147.141 784.316 146.684 783.961 146.124C783.625 145.564 783.457 144.939 783.457 144.248V143.716H786.789V144.136C786.789 144.285 786.836 144.416 786.929 144.528C787.041 144.621 787.172 144.668 787.321 144.668H796.085C796.235 144.668 796.356 144.621 796.449 144.528C796.561 144.416 796.617 144.285 796.617 144.136V142.064C796.617 141.933 796.561 141.821 796.449 141.728C796.356 141.616 796.235 141.56 796.085 141.56H787.209C786.519 141.56 785.893 141.392 785.333 141.056C784.773 140.701 784.316 140.244 783.961 139.684C783.625 139.124 783.457 138.499 783.457 137.808V135.512C783.457 134.821 783.625 134.196 783.961 133.636C784.316 133.076 784.773 132.628 785.333 132.292C785.893 131.937 786.519 131.76 787.209 131.76H796.197C796.907 131.76 797.541 131.937 798.101 132.292C798.661 132.628 799.109 133.076 799.445 133.636C799.8 134.196 799.977 134.821 799.977 135.512V136.044H796.617V135.624C796.617 135.475 796.561 135.353 796.449 135.26C796.356 135.148 796.235 135.092 796.085 135.092H787.321C787.172 135.092 787.041 135.148 786.929 135.26C786.836 135.353 786.789 135.475 786.789 135.624V137.696C786.789 137.827 786.836 137.948 786.929 138.06C787.041 138.153 787.172 138.2 787.321 138.2H796.197C796.907 138.2 797.541 138.377 798.101 138.732C798.661 139.068 799.109 139.516 799.445 140.076C799.8 140.636 799.977 141.261 799.977 141.952V144.248C799.977 144.939 799.8 145.564 799.445 146.124C799.109 146.684 798.661 147.141 798.101 147.496C797.541 147.832 796.907 148 796.197 148H787.209ZM802.821 154.44V131.76H815.589C816.261 131.76 816.877 131.937 817.437 132.292C818.015 132.628 818.473 133.076 818.809 133.636C819.145 134.196 819.313 134.821 819.313 135.512V144.248C819.313 144.939 819.145 145.564 818.809 146.124C818.473 146.684 818.015 147.141 817.437 147.496C816.877 147.832 816.261 148 815.589 148H806.153V154.44H802.821ZM806.685 144.668H815.477C815.607 144.668 815.719 144.621 815.813 144.528C815.925 144.416 815.981 144.285 815.981 144.136V135.624C815.981 135.475 815.925 135.353 815.813 135.26C815.719 135.148 815.607 135.092 815.477 135.092H806.685C806.554 135.092 806.433 135.148 806.321 135.26C806.209 135.353 806.153 135.475 806.153 135.624V144.136C806.153 144.285 806.209 144.416 806.321 144.528C806.433 144.621 806.554 144.668 806.685 144.668ZM825.082 148C824.392 148 823.766 147.832 823.206 147.496C822.646 147.141 822.189 146.684 821.834 146.124C821.498 145.564 821.33 144.939 821.33 144.248V135.512C821.33 134.821 821.498 134.196 821.834 133.636C822.189 133.076 822.646 132.628 823.206 132.292C823.766 131.937 824.392 131.76 825.082 131.76H834.07C834.78 131.76 835.414 131.937 835.974 132.292C836.534 132.628 836.982 133.076 837.318 133.636C837.654 134.196 837.822 134.821 837.822 135.512V144.248C837.822 144.939 837.654 145.564 837.318 146.124C836.982 146.684 836.534 147.141 835.974 147.496C835.414 147.832 834.78 148 834.07 148H825.082ZM825.194 144.668H833.958C834.108 144.668 834.229 144.621 834.322 144.528C834.434 144.416 834.49 144.285 834.49 144.136V135.624C834.49 135.475 834.434 135.353 834.322 135.26C834.229 135.148 834.108 135.092 833.958 135.092H825.194C825.045 135.092 824.914 135.148 824.802 135.26C824.709 135.353 824.662 135.475 824.662 135.624V144.136C824.662 144.285 824.709 144.416 824.802 144.528C824.914 144.621 825.045 144.668 825.194 144.668ZM840.172 148V131.76H852.94C853.612 131.76 854.228 131.937 854.788 132.292C855.367 132.628 855.824 133.076 856.16 133.636C856.496 134.196 856.664 134.821 856.664 135.512V148H853.332V135.624C853.332 135.475 853.276 135.353 853.164 135.26C853.071 135.148 852.959 135.092 852.828 135.092H844.036C843.905 135.092 843.784 135.148 843.672 135.26C843.56 135.353 843.504 135.475 843.504 135.624V148H840.172ZM862.951 148C862.261 148 861.635 147.832 861.075 147.496C860.515 147.141 860.058 146.684 859.703 146.124C859.367 145.564 859.199 144.939 859.199 144.248V143.716H862.531V144.136C862.531 144.285 862.578 144.416 862.671 144.528C862.783 144.621 862.914 144.668 863.063 144.668H871.827C871.977 144.668 872.098 144.621 872.191 144.528C872.303 144.416 872.359 144.285 872.359 144.136V142.064C872.359 141.933 872.303 141.821 872.191 141.728C872.098 141.616 871.977 141.56 871.827 141.56H862.951C862.261 141.56 861.635 141.392 861.075 141.056C860.515 140.701 860.058 140.244 859.703 139.684C859.367 139.124 859.199 138.499 859.199 137.808V135.512C859.199 134.821 859.367 134.196 859.703 133.636C860.058 133.076 860.515 132.628 861.075 132.292C861.635 131.937 862.261 131.76 862.951 131.76H871.939C872.649 131.76 873.283 131.937 873.843 132.292C874.403 132.628 874.851 133.076 875.187 133.636C875.542 134.196 875.719 134.821 875.719 135.512V136.044H872.359V135.624C872.359 135.475 872.303 135.353 872.191 135.26C872.098 135.148 871.977 135.092 871.827 135.092H863.063C862.914 135.092 862.783 135.148 862.671 135.26C862.578 135.353 862.531 135.475 862.531 135.624V137.696C862.531 137.827 862.578 137.948 862.671 138.06C862.783 138.153 862.914 138.2 863.063 138.2H871.939C872.649 138.2 873.283 138.377 873.843 138.732C874.403 139.068 874.851 139.516 875.187 140.076C875.542 140.636 875.719 141.261 875.719 141.952V144.248C875.719 144.939 875.542 145.564 875.187 146.124C874.851 146.684 874.403 147.141 873.843 147.496C873.283 147.832 872.649 148 871.939 148H862.951ZM878.507 148V131.76H881.839V148H878.507ZM878.507 129.8V126.44H881.839V129.8H878.507ZM892.778 148L883.846 131.76H887.71L894.402 144.052L901.094 131.76H904.958L895.97 148H892.778ZM909.711 148C909.021 148 908.395 147.832 907.835 147.496C907.275 147.141 906.818 146.684 906.463 146.124C906.127 145.564 905.959 144.939 905.959 144.248V135.512C905.959 134.821 906.127 134.196 906.463 133.636C906.818 133.076 907.275 132.628 907.835 132.292C908.395 131.937 909.021 131.76 909.711 131.76H918.699C919.409 131.76 920.043 131.937 920.603 132.292C921.163 132.628 921.611 133.076 921.947 133.636C922.283 134.196 922.451 134.821 922.451 135.512V141.56H909.291V144.136C909.291 144.285 909.338 144.416 909.431 144.528C909.543 144.621 909.674 144.668 909.823 144.668H922.451V148H909.711ZM909.291 138.508H919.119V135.624C919.119 135.475 919.063 135.353 918.951 135.26C918.858 135.148 918.737 135.092 918.587 135.092H909.823C909.674 135.092 909.543 135.148 909.431 135.26C909.338 135.353 909.291 135.475 909.291 135.624V138.508ZM1003.09 148C1002.4 148 1001.77 147.832 1001.19 147.496C1000.63 147.141 1000.18 146.684 999.843 146.124C999.507 145.564 999.339 144.939 999.339 144.248V138.2H1012.5V135.624C1012.5 135.475 1012.44 135.353 1012.33 135.26C1012.24 135.148 1012.12 135.092 1011.97 135.092H999.339V131.76H1012.08C1012.79 131.76 1013.42 131.937 1013.98 132.292C1014.54 132.628 1014.99 133.076 1015.33 133.636C1015.66 134.196 1015.83 134.821 1015.83 135.512V148H1003.09ZM1003.2 144.668H1012.5V141.252H1002.67V144.136C1002.67 144.285 1002.72 144.416 1002.81 144.528C1002.92 144.621 1003.05 144.668 1003.2 144.668ZM1021.72 148C1021.03 148 1020.39 147.832 1019.82 147.496C1019.26 147.141 1018.81 146.684 1018.47 146.124C1018.14 145.564 1017.97 144.939 1017.97 144.248V135.512C1017.97 134.821 1018.14 134.196 1018.47 133.636C1018.81 133.076 1019.26 132.628 1019.82 132.292C1020.39 131.937 1021.03 131.76 1021.72 131.76H1031.16V126.44H1034.49V148H1021.72ZM1021.86 144.668H1030.62C1030.77 144.668 1030.89 144.621 1030.99 144.528C1031.1 144.416 1031.16 144.285 1031.16 144.136V135.624C1031.16 135.475 1031.1 135.353 1030.99 135.26C1030.89 135.148 1030.77 135.092 1030.62 135.092H1021.86C1021.71 135.092 1021.58 135.148 1021.47 135.26C1021.37 135.353 1021.33 135.475 1021.33 135.624V144.136C1021.33 144.285 1021.37 144.416 1021.47 144.528C1021.58 144.621 1021.71 144.668 1021.86 144.668ZM1041.21 148C1040.52 148 1039.88 147.832 1039.3 147.496C1038.74 147.141 1038.3 146.684 1037.96 146.124C1037.62 145.564 1037.46 144.939 1037.46 144.248V138.2H1050.62V135.624C1050.62 135.475 1050.56 135.353 1050.45 135.26C1050.35 135.148 1050.23 135.092 1050.08 135.092H1037.46V131.76H1050.2C1050.91 131.76 1051.54 131.937 1052.1 132.292C1052.66 132.628 1053.11 133.076 1053.44 133.636C1053.78 134.196 1053.95 134.821 1053.95 135.512V148H1041.21ZM1041.32 144.668H1050.62V141.252H1040.79V144.136C1040.79 144.285 1040.83 144.416 1040.93 144.528C1041.04 144.621 1041.17 144.668 1041.32 144.668ZM1056.95 154.44V131.76H1069.72C1070.39 131.76 1071.01 131.937 1071.57 132.292C1072.15 132.628 1072.61 133.076 1072.94 133.636C1073.28 134.196 1073.45 134.821 1073.45 135.512V144.248C1073.45 144.939 1073.28 145.564 1072.94 146.124C1072.61 146.684 1072.15 147.141 1071.57 147.496C1071.01 147.832 1070.39 148 1069.72 148H1060.29V154.44H1056.95ZM1060.82 144.668H1069.61C1069.74 144.668 1069.85 144.621 1069.95 144.528C1070.06 144.416 1070.11 144.285 1070.11 144.136V135.624C1070.11 135.475 1070.06 135.353 1069.95 135.26C1069.85 135.148 1069.74 135.092 1069.61 135.092H1060.82C1060.69 135.092 1060.57 135.148 1060.45 135.26C1060.34 135.353 1060.29 135.475 1060.29 135.624V144.136C1060.29 144.285 1060.34 144.416 1060.45 144.528C1060.57 144.621 1060.69 144.668 1060.82 144.668ZM1079.27 148C1078.58 148 1077.95 147.832 1077.37 147.496C1076.81 147.141 1076.36 146.684 1076.02 146.124C1075.69 145.564 1075.52 144.939 1075.52 144.248V126.692H1078.85V131.76H1085.35V135.092H1078.85V144.136C1078.85 144.285 1078.9 144.416 1078.99 144.528C1079.1 144.621 1079.23 144.668 1079.38 144.668H1085.35V148H1079.27ZM1087.63 148V131.76H1090.96V148H1087.63ZM1087.63 129.8V126.44H1090.96V129.8H1087.63ZM1101.9 148L1092.97 131.76H1096.83L1103.53 144.052L1110.22 131.76H1114.08L1105.09 148H1101.9ZM1118.84 148C1118.15 148 1117.52 147.832 1116.96 147.496C1116.4 147.141 1115.94 146.684 1115.59 146.124C1115.25 145.564 1115.08 144.939 1115.08 144.248V135.512C1115.08 134.821 1115.25 134.196 1115.59 133.636C1115.94 133.076 1116.4 132.628 1116.96 132.292C1117.52 131.937 1118.15 131.76 1118.84 131.76H1127.82C1128.53 131.76 1129.17 131.937 1129.73 132.292C1130.29 132.628 1130.74 133.076 1131.07 133.636C1131.41 134.196 1131.58 134.821 1131.58 135.512V141.56H1118.42V144.136C1118.42 144.285 1118.46 144.416 1118.56 144.528C1118.67 144.621 1118.8 144.668 1118.95 144.668H1131.58V148H1118.84ZM1118.42 138.508H1128.24V135.624C1128.24 135.475 1128.19 135.353 1128.08 135.26C1127.98 135.148 1127.86 135.092 1127.71 135.092H1118.95C1118.8 135.092 1118.67 135.148 1118.56 135.26C1118.46 135.353 1118.42 135.475 1118.42 135.624V138.508Z" fill="white"/>
</g>
<path id="FLUTTER FRONT END" d="M463.856 77V53.96H485.008V57.832H467.728V63.528H481.648V67.432H467.728V77H463.856ZM486.949 77V53.928H490.789V73.128H509.989V77H486.949ZM516.111 77C515.321 77 514.596 76.808 513.935 76.424C513.273 76.04 512.751 75.5173 512.367 74.856C511.983 74.1947 511.791 73.4693 511.791 72.68V53.96H515.631V72.552C515.631 72.7227 515.684 72.8613 515.791 72.968C515.919 73.0747 516.057 73.128 516.207 73.128H530.351C530.521 73.128 530.66 73.0747 530.767 72.968C530.895 72.8613 530.959 72.7227 530.959 72.552V53.96H534.831V72.68C534.831 73.4693 534.628 74.1947 534.223 74.856C533.839 75.5173 533.316 76.04 532.655 76.424C532.015 76.808 531.3 77 530.511 77H516.111ZM546.803 77V57.832H537.203V53.96H560.243V57.832H550.675V77H546.803ZM571.084 77V57.832H561.484V53.96H584.524V57.832H574.956V77H571.084ZM586.981 77V53.96H608.133V57.832H590.853V63.528H604.773V67.432H590.853V73.128H608.133V77H586.981ZM630.041 77L622.969 68.552H627.993L634.361 76.104V77H630.041ZM611.417 77V53.992H630.137C630.926 53.992 631.641 54.1947 632.281 54.6C632.942 54.984 633.465 55.5067 633.849 56.168C634.254 56.808 634.457 57.5227 634.457 58.312V64.648C634.457 65.416 634.254 66.1307 633.849 66.792C633.465 67.4533 632.942 67.976 632.281 68.36C631.641 68.744 630.926 68.936 630.137 68.936L615.257 68.968V77H611.417ZM615.833 65.064H629.977C630.148 65.064 630.286 65.0107 630.393 64.904C630.521 64.7973 630.585 64.6587 630.585 64.488V58.408C630.585 58.2587 630.521 58.1307 630.393 58.024C630.286 57.896 630.148 57.832 629.977 57.832H615.833C615.684 57.832 615.545 57.896 615.417 58.024C615.31 58.1307 615.257 58.2587 615.257 58.408V64.488C615.257 64.6587 615.31 64.7973 615.417 64.904C615.545 65.0107 615.684 65.064 615.833 65.064ZM647.419 77V53.96H668.571V57.832H651.291V63.528H665.211V67.432H651.291V77H647.419ZM689.166 77L682.094 68.552H687.118L693.486 76.104V77H689.166ZM670.542 77V53.992H689.262C690.051 53.992 690.766 54.1947 691.406 54.6C692.067 54.984 692.59 55.5067 692.974 56.168C693.379 56.808 693.582 57.5227 693.582 58.312V64.648C693.582 65.416 693.379 66.1307 692.974 66.792C692.59 67.4533 692.067 67.976 691.406 68.36C690.766 68.744 690.051 68.936 689.262 68.936L674.382 68.968V77H670.542ZM674.958 65.064H689.102C689.273 65.064 689.411 65.0107 689.518 64.904C689.646 64.7973 689.71 64.6587 689.71 64.488V58.408C689.71 58.2587 689.646 58.1307 689.518 58.024C689.411 57.896 689.273 57.832 689.102 57.832H674.958C674.809 57.832 674.67 57.896 674.542 58.024C674.435 58.1307 674.382 58.2587 674.382 58.408V64.488C674.382 64.6587 674.435 64.7973 674.542 64.904C674.67 65.0107 674.809 65.064 674.958 65.064ZM701.204 77C700.415 77 699.69 76.808 699.028 76.424C698.367 76.04 697.844 75.5173 697.46 74.856C697.076 74.1947 696.884 73.4693 696.884 72.68V58.28C696.884 57.4907 697.076 56.7653 697.46 56.104C697.844 55.4427 698.367 54.92 699.028 54.536C699.69 54.152 700.415 53.96 701.204 53.96H715.604C716.394 53.96 717.108 54.152 717.748 54.536C718.41 54.92 718.932 55.4427 719.316 56.104C719.722 56.7653 719.924 57.4907 719.924 58.28V72.68C719.924 73.4693 719.722 74.1947 719.316 74.856C718.932 75.5173 718.41 76.04 717.748 76.424C717.108 76.808 716.394 77 715.604 77H701.204ZM701.3 73.128H715.444C715.615 73.128 715.754 73.0747 715.86 72.968C715.988 72.8613 716.052 72.7227 716.052 72.552V58.408C716.052 58.2373 715.988 58.0987 715.86 57.992C715.754 57.8853 715.615 57.832 715.444 57.832H701.3C701.151 57.832 701.012 57.8853 700.884 57.992C700.778 58.0987 700.724 58.2373 700.724 58.408V72.552C700.724 72.7227 700.778 72.8613 700.884 72.968C701.012 73.0747 701.151 73.128 701.3 73.128ZM723.448 77V53.96H727.832L742.616 71.56V53.96H746.488V77H742.104L727.288 59.368V77H723.448ZM758.521 77V57.832H748.921V53.96H771.961V57.832H762.393V77H758.521ZM783.95 77V53.96H805.102V57.832H787.822V63.528H801.742V67.432H787.822V73.128H805.102V77H783.95ZM808.386 77V53.96H812.77L827.554 71.56V53.96H831.426V77H827.042L812.226 59.368V77H808.386ZM835.075 77V53.96H853.795C854.584 53.96 855.299 54.152 855.939 54.536C856.6 54.92 857.123 55.4427 857.507 56.104C857.912 56.7653 858.115 57.4907 858.115 58.28V72.68C858.115 73.4693 857.912 74.1947 857.507 74.856C857.123 75.5173 856.6 76.04 855.939 76.424C855.299 76.808 854.584 77 853.795 77H835.075ZM839.491 73.128H853.635C853.805 73.128 853.944 73.0747 854.051 72.968C854.179 72.8613 854.243 72.7227 854.243 72.552V58.408C854.243 58.2373 854.179 58.0987 854.051 57.992C853.944 57.8853 853.805 57.832 853.635 57.832H839.491C839.32 57.832 839.171 57.8853 839.043 57.992C838.936 58.0987 838.883 58.2373 838.883 58.408V72.552C838.883 72.7227 838.936 72.8613 839.043 72.968C839.171 73.0747 839.32 73.128 839.491 73.128Z" fill="white"/>
</g>
</g>
<defs>
<linearGradient id="paint0_linear_142_3" x1="395.784" y1="381.793" x2="289.862" y2="277.299" gradientUnits="userSpaceOnUse">
<stop stop-color="#0176D0"/>
<stop offset="0.454" stop-color="#0275CE"/>
<stop offset="0.617" stop-color="#0472C7"/>
<stop offset="0.733" stop-color="#076BBC"/>
<stop offset="0.827" stop-color="#0D63AB"/>
<stop offset="0.907" stop-color="#135895"/>
<stop offset="0.933" stop-color="#16538C"/>
</linearGradient>
</defs>
</svg>
